<svg width="304" height="74" viewBox="0 0 304 74" fill="none" xmlns="http://www.w3.org/2000/svg">
<path d="M138.44 31V15.402H141.476V22.816L148.032 15.38H151.376L145.392 22.31L151.75 31H148.318L143.456 24.268L141.476 26.336V31H138.44ZM165.741 26.974C165.741 27.854 165.513 28.5947 165.059 29.196C164.604 29.7827 163.988 30.23 163.211 30.538C162.448 30.846 161.612 31 160.703 31H153.157V15.38H161.517C162.25 15.38 162.881 15.578 163.409 15.974C163.951 16.3553 164.362 16.854 164.641 17.47C164.934 18.0713 165.081 18.702 165.081 19.362C165.081 20.11 164.89 20.8213 164.509 21.496C164.127 22.1707 163.57 22.6693 162.837 22.992C163.731 23.256 164.435 23.7327 164.949 24.422C165.477 25.1113 165.741 25.962 165.741 26.974ZM162.683 26.402C162.683 26.006 162.602 25.654 162.441 25.346C162.279 25.0233 162.059 24.774 161.781 24.598C161.517 24.4073 161.209 24.312 160.857 24.312H156.193V28.426H160.703C161.069 28.426 161.399 28.338 161.693 28.162C162.001 27.9713 162.243 27.722 162.419 27.414C162.595 27.106 162.683 26.7687 162.683 26.402ZM156.193 17.976V21.914H160.241C160.578 21.914 160.886 21.8333 161.165 21.672C161.443 21.5107 161.663 21.2833 161.825 20.99C162.001 20.6967 162.089 20.3447 162.089 19.934C162.089 19.538 162.008 19.1933 161.847 18.9C161.7 18.6067 161.495 18.3793 161.231 18.218C160.981 18.0567 160.695 17.976 160.373 17.976H156.193ZM178.956 28.338V31H168.11V15.38H178.758V18.042H171.146V21.804H177.724V24.268H171.146V28.338H178.956ZM195.914 19.472C195.811 19.3693 195.621 19.23 195.342 19.054C195.078 18.878 194.748 18.7093 194.352 18.548C193.971 18.3867 193.553 18.2473 193.098 18.13C192.643 17.998 192.181 17.932 191.712 17.932C190.891 17.932 190.267 18.086 189.842 18.394C189.431 18.702 189.226 19.1347 189.226 19.692C189.226 20.1173 189.358 20.4547 189.622 20.704C189.886 20.9533 190.282 21.166 190.81 21.342C191.338 21.518 191.998 21.7087 192.79 21.914C193.817 22.1633 194.704 22.4713 195.452 22.838C196.215 23.19 196.794 23.6593 197.19 24.246C197.601 24.818 197.806 25.5807 197.806 26.534C197.806 27.37 197.652 28.0887 197.344 28.69C197.036 29.2767 196.611 29.7533 196.068 30.12C195.525 30.4867 194.909 30.758 194.22 30.934C193.531 31.0953 192.797 31.176 192.02 31.176C191.243 31.176 190.465 31.0953 189.688 30.934C188.911 30.7727 188.163 30.5453 187.444 30.252C186.725 29.944 186.065 29.5773 185.464 29.152L186.806 26.534C186.938 26.666 187.173 26.842 187.51 27.062C187.847 27.2673 188.258 27.48 188.742 27.7C189.226 27.9053 189.754 28.0813 190.326 28.228C190.898 28.3747 191.477 28.448 192.064 28.448C192.885 28.448 193.509 28.3087 193.934 28.03C194.359 27.7513 194.572 27.3553 194.572 26.842C194.572 26.3727 194.403 26.006 194.066 25.742C193.729 25.478 193.259 25.2507 192.658 25.06C192.057 24.8547 191.345 24.6347 190.524 24.4C189.541 24.1213 188.72 23.8133 188.06 23.476C187.4 23.124 186.909 22.684 186.586 22.156C186.263 21.628 186.102 20.968 186.102 20.176C186.102 19.1053 186.351 18.2107 186.85 17.492C187.363 16.7587 188.053 16.2087 188.918 15.842C189.783 15.4607 190.744 15.27 191.8 15.27C192.533 15.27 193.223 15.3507 193.868 15.512C194.528 15.6733 195.144 15.886 195.716 16.15C196.288 16.414 196.801 16.7 197.256 17.008L195.914 19.472ZM199.691 33.244C199.955 33.3027 200.197 33.354 200.417 33.398C200.652 33.442 200.85 33.464 201.011 33.464C201.29 33.464 201.517 33.3907 201.693 33.244C201.884 33.112 202.067 32.8627 202.243 32.496C202.419 32.144 202.602 31.6453 202.793 31L198.239 19.472H201.297L204.399 27.986L207.127 19.472H209.943L205.103 33.288C204.927 33.8013 204.656 34.2633 204.289 34.674C203.937 35.0993 203.49 35.4293 202.947 35.664C202.419 35.9133 201.825 36.038 201.165 36.038C200.93 36.038 200.696 36.016 200.461 35.972C200.226 35.9427 199.97 35.884 199.691 35.796V33.244ZM215.511 31.22C214.529 31.22 213.59 31.0587 212.695 30.736C211.801 30.4133 211.031 29.9367 210.385 29.306L211.441 27.392C212.131 27.9493 212.805 28.36 213.465 28.624C214.14 28.888 214.785 29.02 215.401 29.02C215.973 29.02 216.428 28.9173 216.765 28.712C217.117 28.5067 217.293 28.1987 217.293 27.788C217.293 27.5093 217.198 27.2967 217.007 27.15C216.817 26.9887 216.538 26.8493 216.171 26.732C215.819 26.6147 215.387 26.4827 214.873 26.336C214.023 26.0573 213.311 25.786 212.739 25.522C212.167 25.258 211.735 24.928 211.441 24.532C211.163 24.1213 211.023 23.6007 211.023 22.97C211.023 22.2073 211.214 21.5547 211.595 21.012C211.991 20.4547 212.534 20.022 213.223 19.714C213.927 19.406 214.749 19.252 215.687 19.252C216.509 19.252 217.286 19.384 218.019 19.648C218.753 19.8973 219.42 20.308 220.021 20.88L218.833 22.75C218.247 22.2953 217.689 21.9653 217.161 21.76C216.633 21.54 216.098 21.43 215.555 21.43C215.247 21.43 214.954 21.4667 214.675 21.54C214.411 21.6133 214.191 21.738 214.015 21.914C213.854 22.0753 213.773 22.31 213.773 22.618C213.773 22.8967 213.847 23.1167 213.993 23.278C214.155 23.4247 214.389 23.5567 214.697 23.674C215.02 23.7913 215.409 23.9233 215.863 24.07C216.787 24.334 217.565 24.6053 218.195 24.884C218.841 25.1627 219.325 25.5073 219.647 25.918C219.97 26.314 220.131 26.864 220.131 27.568C220.131 28.712 219.713 29.6067 218.877 30.252C218.041 30.8973 216.919 31.22 215.511 31.22ZM228.98 30.406C228.731 30.5087 228.43 30.626 228.078 30.758C227.726 30.89 227.345 30.9927 226.934 31.066C226.538 31.154 226.135 31.198 225.724 31.198C225.181 31.198 224.683 31.1027 224.228 30.912C223.773 30.7213 223.407 30.4207 223.128 30.01C222.864 29.5847 222.732 29.0347 222.732 28.36V21.738H221.214V19.472H222.732V15.732H225.68V19.472H228.1V21.738H225.68V27.37C225.695 27.766 225.805 28.052 226.01 28.228C226.215 28.404 226.472 28.492 226.78 28.492C227.088 28.492 227.389 28.4407 227.682 28.338C227.975 28.2353 228.21 28.1473 228.386 28.074L228.98 30.406ZM235.711 31.22C234.787 31.22 233.951 31.066 233.203 30.758C232.455 30.4353 231.817 30.0027 231.289 29.46C230.761 28.9027 230.35 28.272 230.057 27.568C229.778 26.8493 229.639 26.094 229.639 25.302C229.639 24.202 229.881 23.1973 230.365 22.288C230.864 21.3787 231.568 20.6527 232.477 20.11C233.401 19.5527 234.486 19.274 235.733 19.274C236.994 19.274 238.072 19.5527 238.967 20.11C239.862 20.6527 240.544 21.3787 241.013 22.288C241.497 23.1827 241.739 24.1507 241.739 25.192C241.739 25.368 241.732 25.5513 241.717 25.742C241.702 25.918 241.688 26.0647 241.673 26.182H232.763C232.822 26.7687 232.99 27.282 233.269 27.722C233.562 28.162 233.929 28.4993 234.369 28.734C234.824 28.954 235.308 29.064 235.821 29.064C236.408 29.064 236.958 28.9247 237.471 28.646C237.999 28.3527 238.358 27.9713 238.549 27.502L241.079 28.206C240.8 28.7927 240.397 29.3133 239.869 29.768C239.356 30.2227 238.747 30.582 238.043 30.846C237.339 31.0953 236.562 31.22 235.711 31.22ZM232.697 24.312H238.725C238.666 23.7253 238.498 23.2193 238.219 22.794C237.955 22.354 237.603 22.0167 237.163 21.782C236.723 21.5327 236.232 21.408 235.689 21.408C235.161 21.408 234.677 21.5327 234.237 21.782C233.812 22.0167 233.46 22.354 233.181 22.794C232.917 23.2193 232.756 23.7253 232.697 24.312ZM261.443 31H258.495V24.532C258.495 23.6227 258.334 22.9553 258.011 22.53C257.703 22.09 257.27 21.87 256.713 21.87C256.141 21.87 255.591 22.0973 255.063 22.552C254.55 22.992 254.183 23.5713 253.963 24.29V31H251.015V24.532C251.015 23.608 250.854 22.9333 250.531 22.508C250.223 22.0827 249.79 21.87 249.233 21.87C248.661 21.87 248.111 22.09 247.583 22.53C247.07 22.97 246.703 23.5493 246.483 24.268V31H243.535V19.472H246.197V21.606C246.637 20.858 247.224 20.286 247.957 19.89C248.69 19.4793 249.534 19.274 250.487 19.274C251.44 19.274 252.181 19.5087 252.709 19.978C253.252 20.4473 253.596 21.0267 253.743 21.716C254.212 20.924 254.806 20.3227 255.525 19.912C256.258 19.4867 257.08 19.274 257.989 19.274C258.708 19.274 259.287 19.406 259.727 19.67C260.182 19.9193 260.534 20.264 260.783 20.704C261.032 21.1293 261.201 21.6133 261.289 22.156C261.392 22.6987 261.443 23.2487 261.443 23.806V31ZM269.531 33.794V30.516H263.107V27.898L270.477 18.438H272.479V27.876H274.415V30.516H272.479V33.794H269.531ZM266.055 27.876H269.861V22.904L266.055 27.876ZM287.71 28.338V31H276.864V15.38H287.512V18.042H279.9V21.804H286.478V24.268H279.9V28.338H287.71ZM291.683 15.38L295.907 27.392L300.087 15.38H303.277L297.359 31H294.433L288.493 15.38H291.683ZM147.02 50.072C147.02 50.68 146.86 51.2027 146.54 51.64C146.231 52.0773 145.809 52.4133 145.276 52.648C144.743 52.8827 144.156 53 143.516 53H138.092V41.64H143.948C144.481 41.64 144.94 41.784 145.324 42.072C145.719 42.3493 146.017 42.712 146.22 43.16C146.433 43.5973 146.54 44.056 146.54 44.536C146.54 45.0907 146.396 45.6133 146.108 46.104C145.831 46.584 145.431 46.9413 144.908 47.176C145.559 47.368 146.071 47.72 146.444 48.232C146.828 48.7333 147.02 49.3467 147.02 50.072ZM145.18 49.736C145.18 49.416 145.111 49.128 144.972 48.872C144.844 48.6053 144.663 48.392 144.428 48.232C144.204 48.0613 143.937 47.976 143.628 47.976H139.884V51.448H143.516C143.836 51.448 144.119 51.3733 144.364 51.224C144.62 51.064 144.817 50.856 144.956 50.6C145.105 50.3333 145.18 50.0453 145.18 49.736ZM139.884 43.192V46.536H143.18C143.479 46.536 143.745 46.4667 143.98 46.328C144.215 46.1787 144.401 45.9813 144.54 45.736C144.679 45.48 144.748 45.192 144.748 44.872C144.748 44.5413 144.684 44.2533 144.556 44.008C144.428 43.752 144.252 43.5547 144.028 43.416C143.815 43.2667 143.564 43.192 143.276 43.192H139.884ZM152.057 50.552C152.057 50.0187 152.206 49.5547 152.505 49.16C152.814 48.7547 153.236 48.4453 153.769 48.232C154.302 48.008 154.921 47.896 155.625 47.896C155.998 47.896 156.377 47.9227 156.761 47.976C157.156 48.0293 157.502 48.1147 157.801 48.232V47.704C157.801 47.1173 157.625 46.6587 157.273 46.328C156.921 45.9973 156.414 45.832 155.753 45.832C155.284 45.832 154.841 45.9173 154.425 46.088C154.009 46.248 153.566 46.4773 153.097 46.776L152.505 45.592C153.06 45.2187 153.614 44.9413 154.169 44.76C154.734 44.5787 155.326 44.488 155.945 44.488C157.065 44.488 157.945 44.7867 158.585 45.384C159.236 45.9707 159.561 46.808 159.561 47.896V51.016C159.561 51.2187 159.593 51.3627 159.657 51.448C159.732 51.5333 159.854 51.5813 160.025 51.592V53C159.865 53.032 159.721 53.0533 159.593 53.064C159.465 53.0747 159.358 53.08 159.273 53.08C158.9 53.08 158.617 52.9893 158.425 52.808C158.233 52.6267 158.121 52.4133 158.089 52.168L158.041 51.688C157.678 52.1573 157.214 52.52 156.649 52.776C156.084 53.032 155.513 53.16 154.937 53.16C154.382 53.16 153.886 53.048 153.449 52.824C153.012 52.5893 152.67 52.2747 152.425 51.88C152.18 51.4853 152.057 51.0427 152.057 50.552ZM157.385 51.064C157.513 50.9253 157.614 50.7867 157.689 50.648C157.764 50.5093 157.801 50.3867 157.801 50.28V49.32C157.502 49.2027 157.188 49.1173 156.857 49.064C156.526 49 156.201 48.968 155.881 48.968C155.241 48.968 154.718 49.096 154.313 49.352C153.918 49.608 153.721 49.96 153.721 50.408C153.721 50.6533 153.785 50.888 153.913 51.112C154.052 51.336 154.244 51.5173 154.489 51.656C154.745 51.7947 155.06 51.864 155.433 51.864C155.817 51.864 156.185 51.7893 156.537 51.64C156.889 51.4907 157.172 51.2987 157.385 51.064ZM170.29 52.568C170.14 52.6427 169.954 52.7227 169.73 52.808C169.506 52.8933 169.25 52.968 168.962 53.032C168.684 53.096 168.396 53.128 168.098 53.128C167.735 53.128 167.399 53.064 167.09 52.936C166.78 52.808 166.53 52.6053 166.338 52.328C166.156 52.04 166.066 51.672 166.066 51.224V45.992H164.962V44.632H166.066V41.88H167.826V44.632H169.65V45.992H167.826V50.664C167.847 50.952 167.938 51.1653 168.098 51.304C168.268 51.4427 168.476 51.512 168.722 51.512C168.967 51.512 169.202 51.4693 169.426 51.384C169.65 51.2987 169.815 51.2293 169.922 51.176L170.29 52.568ZM180.149 52.568C180 52.6427 179.813 52.7227 179.589 52.808C179.365 52.8933 179.109 52.968 178.821 53.032C178.544 53.096 178.256 53.128 177.957 53.128C177.594 53.128 177.258 53.064 176.949 52.936C176.64 52.808 176.389 52.6053 176.197 52.328C176.016 52.04 175.925 51.672 175.925 51.224V45.992H174.821V44.632H175.925V41.88H177.685V44.632H179.509V45.992H177.685V50.664C177.706 50.952 177.797 51.1653 177.957 51.304C178.128 51.4427 178.336 51.512 178.581 51.512C178.826 51.512 179.061 51.4693 179.285 51.384C179.509 51.2987 179.674 51.2293 179.781 51.176L180.149 52.568ZM189.051 53.16C188.4 53.16 187.808 53.048 187.275 52.824C186.752 52.5893 186.299 52.2747 185.915 51.88C185.531 51.4747 185.232 51.016 185.019 50.504C184.816 49.9813 184.715 49.4267 184.715 48.84C184.715 48.0507 184.896 47.3307 185.259 46.68C185.621 46.0187 186.128 45.4907 186.779 45.096C187.429 44.6907 188.192 44.488 189.067 44.488C189.941 44.488 190.693 44.6907 191.323 45.096C191.963 45.4907 192.459 46.0133 192.811 46.664C193.163 47.3147 193.339 48.0133 193.339 48.76C193.339 48.888 193.333 49.0107 193.323 49.128C193.312 49.2347 193.301 49.3253 193.291 49.4H186.587C186.619 49.8907 186.752 50.3227 186.987 50.696C187.232 51.0587 187.541 51.3467 187.915 51.56C188.288 51.7627 188.688 51.864 189.115 51.864C189.584 51.864 190.027 51.7467 190.443 51.512C190.869 51.2773 191.157 50.968 191.307 50.584L192.811 51.016C192.629 51.4213 192.352 51.7893 191.979 52.12C191.616 52.44 191.184 52.696 190.683 52.888C190.181 53.0693 189.637 53.16 189.051 53.16ZM186.539 48.232H191.595C191.563 47.752 191.424 47.3307 191.179 46.968C190.944 46.5947 190.64 46.3067 190.267 46.104C189.904 45.8907 189.499 45.784 189.051 45.784C188.613 45.784 188.208 45.8907 187.835 46.104C187.472 46.3067 187.173 46.5947 186.939 46.968C186.704 47.3307 186.571 47.752 186.539 48.232ZM203.478 46.152C202.796 46.1627 202.188 46.3173 201.654 46.616C201.132 46.9147 200.758 47.336 200.534 47.88V53H198.774V44.632H200.406V46.504C200.694 45.928 201.073 45.4693 201.542 45.128C202.012 44.776 202.508 44.584 203.03 44.552C203.137 44.552 203.222 44.552 203.286 44.552C203.361 44.552 203.425 44.5573 203.478 44.568V46.152ZM209.047 54.968C209.207 54.9893 209.361 55.0107 209.511 55.032C209.671 55.064 209.799 55.08 209.895 55.08C210.076 55.08 210.231 55.0213 210.359 54.904C210.497 54.7973 210.636 54.5947 210.775 54.296C210.913 53.9973 211.084 53.5653 211.287 53L207.847 44.632H209.687L212.247 51.208L214.519 44.632H216.215L212.423 54.936C212.305 55.2453 212.135 55.528 211.911 55.784C211.687 56.0507 211.409 56.2587 211.079 56.408C210.748 56.5573 210.359 56.632 209.911 56.632C209.783 56.632 209.649 56.6213 209.511 56.6C209.372 56.5787 209.217 56.5467 209.047 56.504V54.968ZM229.264 53V41.64H233.296C234.523 41.64 235.547 41.896 236.368 42.408C237.189 42.9093 237.803 43.592 238.208 44.456C238.624 45.3093 238.832 46.2587 238.832 47.304C238.832 48.456 238.603 49.4587 238.144 50.312C237.696 51.1653 237.056 51.8267 236.224 52.296C235.392 52.7653 234.416 53 233.296 53H229.264ZM237.008 47.304C237.008 46.504 236.859 45.8 236.56 45.192C236.272 44.5733 235.851 44.0933 235.296 43.752C234.752 43.4 234.085 43.224 233.296 43.224H231.056V51.416H233.296C234.096 51.416 234.768 51.2347 235.312 50.872C235.867 50.5093 236.288 50.0187 236.576 49.4C236.864 48.7813 237.008 48.0827 237.008 47.304ZM248.285 53.16C247.634 53.16 247.042 53.048 246.509 52.824C245.986 52.5893 245.533 52.2747 245.149 51.88C244.765 51.4747 244.466 51.016 244.253 50.504C244.05 49.9813 243.949 49.4267 243.949 48.84C243.949 48.0507 244.13 47.3307 244.493 46.68C244.856 46.0187 245.362 45.4907 246.013 45.096C246.664 44.6907 247.426 44.488 248.301 44.488C249.176 44.488 249.928 44.6907 250.557 45.096C251.197 45.4907 251.693 46.0133 252.045 46.664C252.397 47.3147 252.573 48.0133 252.573 48.76C252.573 48.888 252.568 49.0107 252.557 49.128C252.546 49.2347 252.536 49.3253 252.525 49.4H245.821C245.853 49.8907 245.986 50.3227 246.221 50.696C246.466 51.0587 246.776 51.3467 247.149 51.56C247.522 51.7627 247.922 51.864 248.349 51.864C248.818 51.864 249.261 51.7467 249.677 51.512C250.104 51.2773 250.392 50.968 250.541 50.584L252.045 51.016C251.864 51.4213 251.586 51.7893 251.213 52.12C250.85 52.44 250.418 52.696 249.917 52.888C249.416 53.0693 248.872 53.16 248.285 53.16ZM245.773 48.232H250.829C250.797 47.752 250.658 47.3307 250.413 46.968C250.178 46.5947 249.874 46.3067 249.501 46.104C249.138 45.8907 248.733 45.784 248.285 45.784C247.848 45.784 247.442 45.8907 247.069 46.104C246.706 46.3067 246.408 46.5947 246.173 46.968C245.938 47.3307 245.805 47.752 245.773 48.232ZM260.985 53.16C260.281 53.16 259.614 53.048 258.985 52.824C258.355 52.5893 257.817 52.2427 257.369 51.784L258.025 50.6C258.505 51.0267 258.985 51.336 259.465 51.528C259.955 51.72 260.441 51.816 260.921 51.816C261.411 51.816 261.811 51.7253 262.121 51.544C262.43 51.352 262.585 51.0747 262.585 50.712C262.585 50.4453 262.505 50.248 262.345 50.12C262.185 49.992 261.95 49.88 261.641 49.784C261.342 49.688 260.979 49.5813 260.553 49.464C259.955 49.2827 259.454 49.096 259.049 48.904C258.643 48.7013 258.339 48.456 258.137 48.168C257.934 47.88 257.833 47.512 257.833 47.064C257.833 46.52 257.971 46.056 258.249 45.672C258.526 45.288 258.91 44.9947 259.401 44.792C259.902 44.5893 260.478 44.488 261.129 44.488C261.737 44.488 262.297 44.584 262.809 44.776C263.331 44.9573 263.79 45.2453 264.185 45.64L263.433 46.808C263.059 46.4667 262.675 46.216 262.281 46.056C261.897 45.896 261.481 45.816 261.033 45.816C260.777 45.816 260.531 45.848 260.297 45.912C260.062 45.9653 259.865 46.072 259.705 46.232C259.555 46.3813 259.481 46.5947 259.481 46.872C259.481 47.096 259.545 47.2773 259.673 47.416C259.801 47.5547 259.993 47.672 260.249 47.768C260.505 47.864 260.819 47.9707 261.193 48.088C261.843 48.28 262.398 48.472 262.857 48.664C263.315 48.8453 263.667 49.0853 263.913 49.384C264.169 49.672 264.297 50.072 264.297 50.584C264.297 51.3947 263.993 52.0293 263.385 52.488C262.787 52.936 261.987 53.16 260.985 53.16ZM269.868 53V44.632H271.628V53H269.868ZM269.868 43.256V41.32H271.628V43.256H269.868ZM281.055 53.08C280.49 53.08 279.972 52.968 279.503 52.744C279.034 52.5093 278.628 52.1947 278.287 51.8C277.956 51.4053 277.695 50.952 277.503 50.44C277.322 49.928 277.231 49.3893 277.231 48.824C277.231 48.2267 277.327 47.6667 277.519 47.144C277.711 46.6213 277.978 46.1627 278.319 45.768C278.671 45.3627 279.082 45.048 279.551 44.824C280.02 44.6 280.543 44.488 281.119 44.488C281.791 44.488 282.378 44.648 282.879 44.968C283.391 45.288 283.812 45.704 284.143 46.216V44.632H285.695V52.76C285.695 53.5707 285.498 54.2587 285.103 54.824C284.719 55.3893 284.191 55.8213 283.519 56.12C282.847 56.4187 282.09 56.568 281.247 56.568C280.319 56.568 279.551 56.408 278.943 56.088C278.335 55.768 277.818 55.3307 277.391 54.776L278.383 53.848C278.703 54.296 279.114 54.6373 279.615 54.872C280.127 55.1067 280.671 55.224 281.247 55.224C281.727 55.224 282.17 55.1333 282.575 54.952C282.991 54.7813 283.322 54.5093 283.567 54.136C283.812 53.7733 283.935 53.3147 283.935 52.76V51.48C283.636 51.9813 283.226 52.376 282.703 52.664C282.18 52.9413 281.631 53.08 281.055 53.08ZM281.631 51.656C281.898 51.656 282.154 51.6133 282.399 51.528C282.644 51.432 282.868 51.3093 283.071 51.16C283.284 51 283.466 50.824 283.615 50.632C283.764 50.4293 283.871 50.216 283.935 49.992V47.8C283.796 47.4373 283.599 47.1227 283.343 46.856C283.087 46.5787 282.799 46.3653 282.479 46.216C282.159 46.0667 281.834 45.992 281.503 45.992C281.119 45.992 280.772 46.0773 280.463 46.248C280.164 46.408 279.908 46.6267 279.695 46.904C279.482 47.1707 279.316 47.4747 279.199 47.816C279.082 48.1573 279.023 48.5093 279.023 48.872C279.023 49.256 279.087 49.6133 279.215 49.944C279.354 50.2747 279.54 50.5733 279.775 50.84C280.01 51.096 280.287 51.2987 280.607 51.448C280.927 51.5867 281.268 51.656 281.631 51.656ZM299.31 53H297.55V48.312C297.55 47.5333 297.422 46.9627 297.166 46.6C296.92 46.2373 296.552 46.056 296.062 46.056C295.72 46.056 295.379 46.1413 295.038 46.312C294.707 46.4827 294.408 46.7173 294.142 47.016C293.875 47.304 293.683 47.64 293.566 48.024V53H291.806V44.632H293.406V46.312C293.619 45.9387 293.896 45.6187 294.238 45.352C294.59 45.0747 294.984 44.8613 295.422 44.712C295.859 44.5627 296.323 44.488 296.814 44.488C297.315 44.488 297.726 44.5787 298.046 44.76C298.376 44.9413 298.632 45.192 298.814 45.512C299.006 45.8213 299.134 46.184 299.198 46.6C299.272 47.0053 299.31 47.4373 299.31 47.896V53Z" fill="white"/>
<path d="M2.5 43C1.3 54.2 11.6667 58.6667 17 59.5L72.9999 58.5C76.6665 58.3334 85.2999 57.5 90.4999 55.5C107 46 100.5 34 98.4999 30C100.5 7.50003 80.9999 9.00004 75.9999 11C64.4999 -7.49996 52.9999 7.50004 50.9999 11C32.9999 -1.99996 29.4999 17 29.4999 20C12.6999 19.2 12.8332 29.6667 14.9999 35C11.3333 33 3.7 31.8 2.5 43Z" fill="#023672"/>
<path d="M95.9772 49.2271H67.8666V54.4756H95.9772V49.2271Z" fill="#00C760"/>
<path d="M68.6079 23.3996C70.8319 22.6583 70.0313 18.8627 72.5221 15.8975C74.4198 13.6439 76.8514 12.1316 79.3125 11.8647C85.7768 11.1827 90.2247 12.695 93.7237 16.7574C98.6163 22.4803 96.0959 29.6859 96.0069 29.9824C95.7104 30.7534 95.8883 31.6133 96.4517 32.2064C98.5274 34.4007 99.4762 37.5438 99.1501 41.0132C98.7942 44.8087 96.9261 48.456 94.4057 50.2944C88.1786 54.8016 79.8463 54.2679 79.7869 54.2382C79.7276 54.2382 79.6683 54.2382 79.6387 54.2382H27.8357C26.6496 54.2382 25.7007 55.1871 25.7007 56.3732C25.7007 57.5593 26.6496 58.5082 27.8357 58.5082H79.5201C80.5876 58.5675 89.6909 58.953 96.8965 53.7341C100.425 51.184 102.946 46.4396 103.42 41.369C103.479 40.776 103.509 40.2126 103.509 39.6195C103.509 36.0612 102.442 32.7698 100.395 30.19C101.137 27.3137 102.234 20.0488 96.9854 13.9404C92.5969 8.84017 86.6663 6.73484 78.8677 7.56511C75.2501 7.95059 71.7215 9.99662 69.1713 13.1694C67.3032 15.512 66.1468 18.24 65.8799 20.9384C65.8799 20.9681 65.6723 24.3781 68.6079 23.3996Z" fill="white"/>
<path d="M77.7706 10.1744C77.8002 11.153 77.1182 12.0722 76.11 12.3094C74.9536 12.5763 73.7971 11.8646 73.5303 10.7378C73.4413 10.4413 71.7215 4.15495 63.2408 4.30322C57.2214 4.42183 53.8706 8.95867 53.3962 12.1315C53.2776 13.0211 52.6252 13.7031 51.7356 13.9106C50.8757 14.1182 49.9861 13.7624 49.482 13.0211C49.4524 12.9914 46.8133 9.19589 42.6916 8.45457C40.2898 8.03944 37.7693 8.7511 35.1895 10.5599C32.4911 12.4873 31.2161 17.5876 32.3429 21.9465C32.8766 23.9925 34.4186 27.5212 38.7182 27.9956C39.9043 28.1142 40.7642 29.1817 40.6159 30.3678C40.4973 31.5539 39.4298 32.3842 38.2437 32.2656C33.2325 31.7318 29.5555 28.3514 28.1619 23.014C26.5606 16.8759 28.5177 10.0262 32.6987 7.0609C36.257 4.54044 39.8746 3.59156 43.4626 4.24391C46.4278 4.77766 48.7704 6.31959 50.4013 7.74291C52.4473 3.88808 56.7469 0.122208 63.1222 0.00359776C72.7593 -0.174318 76.8514 6.28994 77.6816 9.72963C77.7409 9.8779 77.7706 10.0262 77.7706 10.1744Z" fill="white"/>
<path d="M30.6823 19.2481C25.1077 17.0241 18.3469 18.1213 14.9665 21.7389C11.6454 25.2972 11.3489 29.241 11.764 32.058C9.8959 31.9394 7.55335 32.2656 5.18114 33.8075C1.47457 36.2093 -0.571452 41.4282 0.140209 46.7657C0.881523 52.5479 4.52879 56.9068 10.1331 58.7749C16.716 60.9692 23.8622 60.2576 29.2294 56.8772C29.8224 56.4917 30.3858 56.1062 30.9195 55.6614C30.8602 55.6614 30.8009 55.6614 30.7713 55.6614C29.8224 55.6614 28.9032 55.3649 28.1322 54.8905C27.6281 55.0684 27.0944 55.1573 26.531 55.1573C25.7007 55.1573 24.9001 54.9498 24.1884 54.5643C20.3336 55.9876 15.7374 56.0469 11.4971 54.6532C5.86315 52.7851 4.67705 48.1 4.43983 46.1726C3.96539 42.555 5.29975 38.8781 7.58299 37.3658C10.7558 35.2901 13.81 36.8024 13.899 36.8617C14.7293 37.3065 15.7671 37.1582 16.4194 36.5059C17.1015 35.8535 17.2497 34.8157 16.8049 33.9854C16.7753 33.9261 14.1955 28.8259 18.1393 24.6152C20.0371 22.5692 24.7815 21.4424 29.1404 23.1622C30.2375 23.607 31.483 23.0733 31.9277 21.9465C32.3132 20.9383 31.7795 19.6929 30.6823 19.2481Z" fill="white"/>
<path d="M14.1955 56.0172H88.0897C88.5938 56.0172 89.0089 55.602 89.0089 55.0979C89.0089 54.5938 88.5938 54.1787 88.0897 54.1787H14.1955C13.6914 54.1787 13.2763 54.5938 13.2763 55.0979H12.8611C12.8611 55.602 13.7211 56.0172 14.1955 56.0172Z" fill="#00C760"/>
<path d="M89.8688 50.5909C89.4537 50.5909 89.1275 50.2647 89.1275 49.8496V25.149C89.1275 24.7339 89.4537 24.4077 89.8688 24.4077C90.2839 24.4077 90.6101 24.7339 90.6101 25.149V49.8496C90.6101 50.2647 90.2839 50.5909 89.8688 50.5909Z" fill="#00C760"/>
<path d="M23.5064 50.3538C23.0912 50.3538 22.7651 50.0276 22.7651 49.6125V37.3956C22.7651 36.9805 23.0912 36.6543 23.5064 36.6543C23.9215 36.6543 24.2477 36.9805 24.2477 37.3956V49.6125C24.2477 50.0276 23.9215 50.3538 23.5064 50.3538Z" fill="#00C760"/>
<path d="M17.9614 53.3484C17.5462 53.3484 17.2201 53.0223 17.2201 52.6071V45.3126C17.2201 44.8975 17.5462 44.5713 17.9614 44.5713C18.3765 44.5713 18.7027 44.8975 18.7027 45.3126V52.6071C18.7027 52.9926 18.3765 53.3484 17.9614 53.3484Z" fill="#00C760"/>
<path d="M89.9281 25.6235C89.1571 25.6235 88.4455 25.238 88.0303 24.556C87.6152 23.874 87.5855 23.0438 87.971 22.3024C88.1489 21.917 88.4751 21.6204 88.8606 21.4129C89.2164 21.235 89.5723 21.146 89.9577 21.146C90.7287 21.146 91.4404 21.5315 91.8555 22.2135C92.2706 22.8955 92.3003 23.7258 91.9148 24.4671C91.7369 24.8526 91.4107 25.1491 91.0252 25.3567C90.6694 25.5346 90.3136 25.6235 89.9281 25.6235ZM89.9281 22.6286C89.7798 22.6286 89.6612 22.6583 89.5129 22.7472C89.424 22.8065 89.335 22.8658 89.3054 22.9548C89.0978 23.3403 89.2164 23.6368 89.3054 23.7851C89.4537 24.0223 89.6909 24.1409 89.9577 24.1409C90.106 24.1409 90.2246 24.1112 90.3729 24.0223C90.4618 23.963 90.5508 23.9037 90.5804 23.8147C90.788 23.4292 90.6694 23.1327 90.5804 22.9845C90.4322 22.7472 90.195 22.6286 89.9281 22.6286Z" fill="#00C760"/>
<path d="M93.1602 43.2072H86.4291C86.0139 43.2072 85.6878 42.8811 85.6878 42.4659C85.6878 42.0508 86.0139 41.7246 86.4291 41.7246H93.1602C93.5754 41.7246 93.9015 42.0508 93.9015 42.4659C93.9015 42.8811 93.5754 43.2072 93.1602 43.2072Z" fill="#00C760"/>
<path d="M94.7021 44.7788C94.3167 44.7788 93.9609 44.6898 93.605 44.5119C93.2195 44.334 92.923 44.0078 92.7154 43.6224C92.33 42.881 92.3596 42.0508 92.7747 41.3688C93.1899 40.7164 93.9015 40.3013 94.6725 40.3013C95.058 40.3013 95.4138 40.3902 95.7696 40.5681C96.1551 40.7461 96.4516 41.0722 96.6592 41.4577C97.0447 42.199 97.0151 43.0293 96.5999 43.7113C96.2144 44.3637 95.5028 44.7788 94.7021 44.7788ZM94.7021 41.7839C94.4353 41.7839 94.1981 41.9322 94.0498 42.1397C93.9609 42.288 93.8422 42.5549 94.0498 42.97C94.1091 43.059 94.1684 43.1479 94.2574 43.1776C94.4056 43.2369 94.5539 43.2962 94.6725 43.2962C94.9394 43.2962 95.1766 43.1479 95.3248 42.9404C95.4138 42.7921 95.5324 42.5252 95.3248 42.1101C95.2655 42.0211 95.2063 41.9322 95.1173 41.9025C94.9987 41.8136 94.8504 41.7839 94.7021 41.7839Z" fill="#00C760"/>
<path d="M83.3155 31.5244C82.5446 31.5244 81.8329 31.1389 81.4178 30.4569C81.0027 29.7749 80.973 28.9446 81.3585 28.2033C81.5364 27.8178 81.8626 27.5213 82.248 27.3137C82.6039 27.1358 82.9597 27.0469 83.3452 27.0469C84.1162 27.0469 84.8278 27.4324 85.2429 28.1144C85.6581 28.7964 85.6878 29.6266 85.3023 30.368C85.1244 30.7534 84.7982 31.05 84.4127 31.2575C84.0569 31.4355 83.701 31.5244 83.3155 31.5244ZM83.3155 28.5295C83.1673 28.5295 83.0487 28.5592 82.9004 28.6481C82.8115 28.7074 82.7225 28.7667 82.6928 28.8557C82.4853 29.2412 82.6039 29.5377 82.6928 29.6859C82.8411 29.9232 83.0783 30.0418 83.3452 30.0418C83.4935 30.0418 83.6121 30.0121 83.7603 29.9232C83.8493 29.8639 83.9383 29.8046 83.9679 29.7156C84.1755 29.3301 84.0569 29.0336 83.9679 28.8853C83.8196 28.6778 83.5824 28.5295 83.3155 28.5295Z" fill="#00C760"/>
<path d="M70.6836 53.1411C70.2685 53.1411 69.9423 52.8149 69.9423 52.3998V42.5255C69.9423 42.1104 70.2685 41.7842 70.6836 41.7842H86.607C87.0222 41.7842 87.3483 42.1104 87.3483 42.5255V46.2914C87.3483 46.7065 87.0222 47.0327 86.607 47.0327H80.0241V50.3538C80.0241 50.7689 79.698 51.0951 79.2828 51.0951C78.8677 51.0951 78.5415 50.7689 78.5415 50.3538V46.2914C78.5415 45.8762 78.8677 45.5501 79.2828 45.5501H85.8657V43.2668H71.4249V52.3998C71.4249 52.8149 71.0987 53.1411 70.6836 53.1411Z" fill="#00C760"/>
<path d="M74.3901 50.6501C73.975 50.6501 73.6488 50.3239 73.6488 49.9088V38.2849C73.6488 37.8698 73.975 37.5436 74.3901 37.5436H82.5742V31.2276C82.5742 30.8125 82.9004 30.4863 83.3156 30.4863C83.7307 30.4863 84.0569 30.8125 84.0569 31.2276V38.2849C84.0569 38.7001 83.7307 39.0263 83.3156 39.0263H75.1315V49.9088C75.1315 50.2942 74.8053 50.6501 74.3901 50.6501Z" fill="#00C760"/>
<path d="M27.5391 51.8658C27.124 51.8658 26.7978 51.5396 26.7978 51.1245V46.4987H17.9614C17.5462 46.4987 17.2201 46.1725 17.2201 45.7574V43.5631C17.2201 43.148 17.5462 42.8218 17.9614 42.8218C18.3765 42.8218 18.7027 43.148 18.7027 43.5631V45.0161H27.5391C27.9543 45.0161 28.2805 45.3423 28.2805 45.7574V51.1245C28.2805 51.5396 27.9543 51.8658 27.5391 51.8658Z" fill="#00C760"/>
<path d="M23.5064 38.0182C22.261 38.0182 21.2825 37.01 21.2825 35.7943C21.2825 34.5785 22.2906 33.5703 23.5064 33.5703C24.7222 33.5703 25.7303 34.5785 25.7303 35.7943C25.7303 37.01 24.7222 38.0182 23.5064 38.0182ZM23.5064 35.0233C23.0913 35.0233 22.7651 35.3495 22.7651 35.7646C22.7651 36.1797 23.0913 36.5059 23.5064 36.5059C23.9215 36.5059 24.2477 36.1797 24.2477 35.7646C24.2477 35.3495 23.9215 35.0233 23.5064 35.0233Z" fill="#00C760"/>
<path d="M23.1802 46.5876H12.2384C11.8233 46.5876 11.4971 46.2614 11.4971 45.8463C11.4971 45.4312 11.8233 45.105 12.2384 45.105H23.1802C23.5953 45.105 23.9215 45.4312 23.9215 45.8463C23.9215 46.2614 23.5953 46.5876 23.1802 46.5876Z" fill="#00C760"/>
<path d="M10.6372 48.0704C9.39178 48.0704 8.41325 47.0623 8.41325 45.8465C8.41325 44.6307 9.42143 43.6226 10.6372 43.6226C11.8529 43.6226 12.8611 44.6307 12.8611 45.8465C12.8611 47.0623 11.8826 48.0704 10.6372 48.0704ZM10.6372 45.1052C10.2221 45.1052 9.89587 45.4314 9.89587 45.8465C9.89587 46.2616 10.2221 46.5878 10.6372 46.5878C11.0523 46.5878 11.3785 46.2616 11.3785 45.8465C11.3785 45.4314 11.0523 45.1052 10.6372 45.1052Z" fill="#00C760"/>
<path d="M17.9614 43.6818C16.7159 43.6818 15.7374 42.6736 15.7374 41.4578C15.7374 40.2421 16.7456 39.2339 17.9614 39.2339C19.1771 39.2339 20.1853 40.2421 20.1853 41.4578C20.1853 42.6736 19.1771 43.6818 17.9614 43.6818ZM17.9614 40.6869C17.5462 40.6869 17.22 41.013 17.22 41.4282C17.22 41.8433 17.5462 42.1695 17.9614 42.1695C18.3765 42.1695 18.7027 41.8433 18.7027 41.4282C18.7027 41.013 18.3765 40.6869 17.9614 40.6869Z" fill="#00C760"/>
<path d="M88.1786 57.856L87.9117 58.3304L87.4373 58.5973L87.9117 58.8345L88.1786 59.3089L88.4158 58.8345L88.8903 58.5973L88.4158 58.3304L88.1786 57.856Z" fill="white"/>
<path d="M63.2408 53.4079H37.2948C35.9012 53.4079 34.7447 52.2514 34.7447 50.8577V38.5223C34.7447 37.1286 35.9012 35.9722 37.2948 35.9722H63.2408C64.6345 35.9722 65.7909 37.1286 65.7909 38.5223V50.8577C65.7909 52.2514 64.6345 53.4079 63.2408 53.4079Z" fill="#00C760"/>
<path d="M61.0169 50.9765H39.9043C38.5106 50.9765 37.3542 49.82 37.3542 48.4264V40.9539C37.3542 39.5603 38.5106 38.4038 39.9043 38.4038H61.0169C62.4106 38.4038 63.567 39.5603 63.567 40.9539V48.3967C63.567 49.82 62.4402 50.9765 61.0169 50.9765Z" fill="white"/>
<path d="M61.0465 51.6288H39.2815C37.7396 51.6288 36.4942 50.3834 36.4942 48.8414V40.598C36.4942 39.0561 37.7396 37.8403 39.2815 37.8403H61.0465C62.5884 37.8403 63.8042 39.0857 63.8042 40.598V48.8414C63.8339 50.3834 62.5884 51.6288 61.0465 51.6288ZM39.3112 38.9671C38.392 38.9671 37.6803 39.7084 37.6803 40.598V48.8414C37.6803 49.7607 38.4216 50.4723 39.3112 50.4723H61.0762C61.9954 50.4723 62.7071 49.731 62.7071 48.8414V40.598C62.7071 39.6788 61.9657 38.9671 61.0762 38.9671H39.3112Z" fill="#A5FF7B"/>
<path d="M58.3778 48.9895C59.1488 48.9895 59.7715 48.3668 59.7715 47.5958V41.8136C59.7715 41.0426 59.1488 40.4199 58.3778 40.4199C57.6068 40.4199 56.9841 41.0426 56.9841 41.8136V47.5958C56.9841 48.3668 57.6068 48.9895 58.3778 48.9895Z" fill="#A5FF7B"/>
<path d="M54.1671 48.9895C54.9381 48.9895 55.5608 48.3668 55.5608 47.5958V41.8136C55.5608 41.0426 54.9381 40.4199 54.1671 40.4199C53.3962 40.4199 52.7735 41.0426 52.7735 41.8136V47.5958C52.7735 48.3668 53.3962 48.9895 54.1671 48.9895Z" fill="#A5FF7B"/>
<path d="M50.1047 48.9895C50.8757 48.9895 51.4984 48.3668 51.4984 47.5958V41.8136C51.4984 41.0426 50.8757 40.4199 50.1047 40.4199C49.3338 40.4199 48.7111 41.0426 48.7111 41.8136V47.5958C48.7111 48.3668 49.3338 48.9895 50.1047 48.9895Z" fill="#A5FF7B"/>
<path d="M45.8348 48.9895C46.6058 48.9895 47.2285 48.3668 47.2285 47.5958V41.8136C47.2285 41.0426 46.6058 40.4199 45.8348 40.4199C45.0638 40.4199 44.4411 41.0426 44.4411 41.8136V47.5958C44.4708 48.3668 45.0935 48.9895 45.8348 48.9895Z" fill="#A5FF7B"/>
<path d="M41.8613 48.9895C42.6323 48.9895 43.255 48.3668 43.255 47.5958V41.8136C43.255 41.0426 42.6323 40.4199 41.8613 40.4199C41.0904 40.4199 40.4677 41.0426 40.4677 41.8136V47.5958C40.4677 48.3668 41.0904 48.9895 41.8613 48.9895Z" fill="#A5FF7B"/>
<path d="M32.8173 48.9896H34.982C35.3971 48.9896 35.7233 48.6635 35.7233 48.2483V41.191C35.7233 40.7759 35.3971 40.4497 34.982 40.4497H32.8173C32.4022 40.4497 32.076 40.7759 32.076 41.191V48.2483C32.076 48.6338 32.4022 48.9896 32.8173 48.9896Z" fill="#00C760"/>
<path d="M33.7662 60.6729H72.5813C73.6785 60.6729 74.5681 60.0502 74.5681 59.3088C74.5681 58.5675 73.6785 57.9448 72.5813 57.9448H33.7662C32.669 57.9448 31.7794 58.5675 31.7794 59.3088C31.7794 60.0502 32.669 60.6729 33.7662 60.6729Z" fill="white"/>
<path d="M82.7819 72.0002C89.1032 72.0002 94.2277 66.8757 94.2277 60.5543C94.2277 54.2329 89.1032 49.1084 82.7819 49.1084C76.4605 49.1084 71.336 54.2329 71.336 60.5543C71.336 66.8757 76.4605 72.0002 82.7819 72.0002Z" fill="white"/>
<path d="M82.7818 68.234C87.0234 68.234 90.4619 64.7956 90.4619 60.554C90.4619 56.3125 87.0234 52.874 82.7818 52.874C78.5403 52.874 75.1018 56.3125 75.1018 60.554C75.1018 64.7956 78.5403 68.234 82.7818 68.234Z" fill="#023672"/>
<path d="M22.7651 72.0002C29.0865 72.0002 34.211 66.8757 34.211 60.5543C34.211 54.2329 29.0865 49.1084 22.7651 49.1084C16.4437 49.1084 11.3192 54.2329 11.3192 60.5543C11.3192 66.8757 16.4437 72.0002 22.7651 72.0002Z" fill="white"/>
<path d="M22.7651 68.234C27.0066 68.234 30.4451 64.7956 30.4451 60.554C30.4451 56.3125 27.0066 52.874 22.7651 52.874C18.5235 52.874 15.0851 56.3125 15.0851 60.554C15.0851 64.7956 18.5235 68.234 22.7651 68.234Z" fill="#023672"/>
<path d="M101 41.3703C103.517 41.5 105.835 43.4399 105.886 45.6617V67.3947C105.914 68.9568 106.562 70.406 107.707 71.4831C108.812 72.5207 110.29 73.079 111.762 73.0113C114.716 72.8759 117.074 70.4117 117.124 67.3835V51.3741H117.147C117.254 50.4944 117.649 49.6429 118.28 48.9662C119.109 48.0695 120.237 47.562 121.45 47.5338H122.059V48.3853C122.087 48.4699 122.143 48.5827 122.245 48.6955C122.589 49.062 123.147 48.9887 123.609 49C124.015 49.0169 125.092 49.1128 126.062 49.9023C126.463 50.2293 126.733 50.579 126.919 50.8722C127.01 51.0188 127.173 51.109 127.348 51.109H130.461C130.523 51.4417 130.81 51.6899 131.16 51.6899H131.363C131.419 51.6899 131.465 51.6447 131.465 51.5883V49.0959H134.408C134.747 49.0959 135.017 48.8252 135.017 48.4868C135.017 48.1485 134.747 47.8778 134.408 47.8778H131.465V45.5376H134.408C134.747 45.5376 135.017 45.2669 135.017 44.9286C135.017 44.5902 134.747 44.3195 134.408 44.3195H131.465V41.9229C131.465 41.8665 131.419 41.8214 131.363 41.8214H131.16C130.844 41.8214 130.579 42.0301 130.489 42.312H127.359C127.179 42.312 127.015 42.4079 126.925 42.5602C126.632 43.0451 126.316 43.344 126.079 43.5244C125.166 44.2293 123.812 44.4774 123.812 44.4774C123.119 44.5451 122.549 44.4098 122.233 44.7989C122.121 44.9342 122.081 45.0865 122.064 45.1993V46.1748H121.438C119.837 46.2143 118.371 46.8741 117.288 48.0414C116.436 48.9605 115.912 50.1278 115.788 51.3289H115.771V67.3722C115.732 69.6335 113.91 71.5508 111.711 71.6466C110.589 71.6974 109.5 71.2857 108.649 70.485C107.775 69.6617 107.278 68.5564 107.262 67.3778V45.6447C107.2 42.6786 104.517 40 101.017 40" fill="white"/>
</svg>
