<svg width="591" height="390" viewBox="0 0 591 390" fill="none" xmlns="http://www.w3.org/2000/svg">
<circle cx="93.5" cy="124.5" r="30" stroke="black" stroke-width="3"/>
<circle cx="214.5" cy="124.5" r="30" stroke="black" stroke-width="3"/>
<circle cx="334.5" cy="127.5" r="30" stroke="black" stroke-width="3"/>
<circle cx="454.5" cy="124.5" r="30" stroke="black" stroke-width="3"/>
<circle cx="515.5" cy="202.5" r="30" stroke="black" stroke-width="3"/>
<circle cx="455.5" cy="284.5" r="30" stroke="black" stroke-width="3"/>
<circle cx="393.5" cy="204.5" r="30" stroke="black" stroke-width="3"/>
<circle cx="276.5" cy="202.5" r="30" stroke="black" stroke-width="3"/>
<circle cx="154.5" cy="202.5" r="30" stroke="black" stroke-width="3"/>
<circle cx="93.5" cy="284.5" r="30" stroke="black" stroke-width="3"/>
<circle cx="213.5" cy="284.5" r="30" stroke="black" stroke-width="3"/>
<circle cx="334.5" cy="284.5" r="30" stroke="black" stroke-width="3"/>
<circle cx="455.5" cy="284.5" r="30" stroke="black" stroke-width="3"/>
<line x1="89.5" y1="125" x2="98.5" y2="125" stroke="black" stroke-width="3" stroke-linecap="round"/>
<line x1="94" y1="120.5" x2="94" y2="129.5" stroke="black" stroke-width="3" stroke-linecap="round"/>
<line x1="210.5" y1="125" x2="219.5" y2="125" stroke="black" stroke-width="3" stroke-linecap="round"/>
<line x1="215" y1="120.5" x2="215" y2="129.5" stroke="black" stroke-width="3" stroke-linecap="round"/>
<line x1="330.5" y1="128" x2="339.5" y2="128" stroke="black" stroke-width="3" stroke-linecap="round"/>
<line x1="335" y1="123.5" x2="335" y2="132.5" stroke="black" stroke-width="3" stroke-linecap="round"/>
<line x1="450.5" y1="125" x2="459.5" y2="125" stroke="black" stroke-width="3" stroke-linecap="round"/>
<line x1="455" y1="120.5" x2="455" y2="129.5" stroke="black" stroke-width="3" stroke-linecap="round"/>
<line x1="511.5" y1="203" x2="520.5" y2="203" stroke="black" stroke-width="3" stroke-linecap="round"/>
<line x1="516" y1="198.5" x2="516" y2="207.5" stroke="black" stroke-width="3" stroke-linecap="round"/>
<line x1="451.5" y1="285" x2="460.5" y2="285" stroke="black" stroke-width="3" stroke-linecap="round"/>
<line x1="456" y1="280.5" x2="456" y2="289.5" stroke="black" stroke-width="3" stroke-linecap="round"/>
<line x1="389.5" y1="205" x2="398.5" y2="205" stroke="black" stroke-width="3" stroke-linecap="round"/>
<line x1="394" y1="200.5" x2="394" y2="209.5" stroke="black" stroke-width="3" stroke-linecap="round"/>
<line x1="272.5" y1="203" x2="281.5" y2="203" stroke="black" stroke-width="3" stroke-linecap="round"/>
<line x1="277" y1="198.5" x2="277" y2="207.5" stroke="black" stroke-width="3" stroke-linecap="round"/>
<line x1="150.5" y1="203" x2="159.5" y2="203" stroke="black" stroke-width="3" stroke-linecap="round"/>
<line x1="155" y1="198.5" x2="155" y2="207.5" stroke="black" stroke-width="3" stroke-linecap="round"/>
<line x1="89.5" y1="285" x2="98.5" y2="285" stroke="black" stroke-width="3" stroke-linecap="round"/>
<line x1="94" y1="280.5" x2="94" y2="289.5" stroke="black" stroke-width="3" stroke-linecap="round"/>
<line x1="209.5" y1="285" x2="218.5" y2="285" stroke="black" stroke-width="3" stroke-linecap="round"/>
<line x1="214" y1="280.5" x2="214" y2="289.5" stroke="black" stroke-width="3" stroke-linecap="round"/>
<line x1="330.5" y1="285" x2="339.5" y2="285" stroke="black" stroke-width="3" stroke-linecap="round"/>
<line x1="335" y1="280.5" x2="335" y2="289.5" stroke="black" stroke-width="3" stroke-linecap="round"/>
<line x1="451.5" y1="285" x2="460.5" y2="285" stroke="black" stroke-width="3" stroke-linecap="round"/>
<line x1="456" y1="280.5" x2="456" y2="289.5" stroke="black" stroke-width="3" stroke-linecap="round"/>
<line x1="485" y1="203.5" x2="591" y2="203.5" stroke="black" stroke-opacity="0.6"/>
<line x1="424" y1="124.5" x2="591" y2="124.5" stroke="black" stroke-opacity="0.6"/>
<line x1="412.652" y1="166.078" x2="506.039" y2="75.6408" stroke="black" stroke-opacity="0.6"/>
<line x1="50" y1="284.5" x2="553" y2="284.5" stroke="#95B3D6"/>
<line x1="93.5" y1="12" x2="93.5" y2="326" stroke="#95B3D6"/>
<line x1="154.5" y1="205" x2="154.5" y2="12" stroke="black" stroke-opacity="0.6"/>
<line x1="215.5" y1="66" x2="215.5" y2="132" stroke="black" stroke-opacity="0.6"/>
<line x1="335.5" y1="10" x2="335.5" y2="134" stroke="black" stroke-opacity="0.6"/>
<line x1="63.5" y1="390" x2="63.5" y2="274" stroke="black" stroke-opacity="0.6"/>
<line x1="69" y1="370.5" x2="540" y2="370.5" stroke="black" stroke-opacity="0.6"/>
<line x1="545.5" y1="192" x2="545.5" y2="388" stroke="black" stroke-opacity="0.6"/>
<line x1="24.5" y1="279" x2="24.5" y2="130" stroke="black" stroke-opacity="0.6"/>
<line x1="581.5" y1="199" x2="581.5" y2="130" stroke="black" stroke-opacity="0.6"/>
<line x1="13" y1="124.5" x2="100" y2="124.5" stroke="black" stroke-opacity="0.6"/>
<line x1="160" y1="24.5" x2="330" y2="24.5" stroke="black" stroke-opacity="0.6"/>
<line x1="158" y1="66.5" x2="210" y2="66.5" stroke="black" stroke-opacity="0.6"/>
<line x1="14" y1="283.5" x2="42" y2="283.5" stroke="black"/>
<path d="M155 24.3333L160.25 20.2919L160.25 28.3748L155 24.3333Z" fill="black"/>
<path d="M64 370.667L69.25 366.625L69.25 374.708L64 370.667Z" fill="black"/>
<path d="M24.6667 125L28.7081 130.25H20.6252L24.6667 125Z" fill="black"/>
<path d="M581.667 125L585.708 130.25H577.625L581.667 125Z" fill="black"/>
<path d="M24.6673 283L20.6259 277.75L28.7088 277.75L24.6673 283Z" fill="black"/>
<path d="M581.667 203L577.626 197.75L585.709 197.75L581.667 203Z" fill="black"/>
<path d="M432.199 147.205L431.531 153.797L425.655 148.245L432.199 147.205Z" fill="black"/>
<path d="M477.3 103.25L478.154 96.6796L483.87 102.395L477.3 103.25Z" fill="black"/>
<path d="M93.5007 7.16669L97.5421 12.4167L89.4592 12.4167L93.5007 7.16669Z" fill="#79A1D0"/>
<path d="M558 284.667L552.75 288.708L552.75 280.625L558 284.667Z" fill="#79A1D0"/>
<path d="M155 66.6667L160.25 62.6253L160.25 70.7082L155 66.6667Z" fill="black"/>
<path d="M335 24.3334L329.75 28.3748L329.75 20.2919L335 24.3334Z" fill="black"/>
<path d="M545 370.667L539.75 374.708L539.75 366.625L545 370.667Z" fill="black"/>
<path d="M215 66.6667L209.75 70.7081L209.75 62.6252L215 66.6667Z" fill="black"/>
<path d="M301.394 363H298.428L302.947 349.909H306.514L311.027 363H308.061L304.782 352.901H304.68L301.394 363ZM301.209 357.854H308.214V360.015H301.209V357.854Z" fill="black"/>
<path d="M241.733 2.90909L244.373 7.37074H244.475L247.128 2.90909H250.254L246.259 9.45455L250.343 16H247.16L244.475 11.532H244.373L241.688 16H238.518L242.615 9.45455L238.594 2.90909H241.733Z" fill="black"/>
<path d="M2.90909 210.629L2.90909 207.529L8.54687 204.544L8.54687 204.416L2.90909 201.431L2.90909 198.331L11.3722 203.106L16 203.106L16 205.854L11.3722 205.854L2.90909 210.629Z" fill="black"/>
<path d="M562.909 178.629L562.909 175.529L568.547 172.544L568.547 172.416L562.909 169.431L562.909 166.331L571.372 171.106L576 171.106L576 173.854L571.372 173.854L562.909 178.629ZM576 165.591L566.182 165.591L566.182 162.996L567.914 162.996L567.914 162.881C567.339 162.676 566.885 162.335 566.553 161.858C566.22 161.381 566.054 160.81 566.054 160.145C566.054 159.472 566.222 158.899 566.559 158.426C566.891 157.953 567.343 157.637 567.914 157.48L567.914 157.377C567.352 157.177 566.902 156.815 566.565 156.291C566.224 155.762 566.054 155.138 566.054 154.418C566.054 153.502 566.346 152.758 566.93 152.187C567.509 151.612 568.332 151.324 569.397 151.324L576 151.324L576 154.041L569.934 154.041C569.388 154.041 568.979 154.186 568.707 154.475C568.434 154.765 568.298 155.127 568.298 155.562C568.298 156.056 568.455 156.442 568.771 156.719C569.082 156.996 569.493 157.134 570.004 157.134L576 157.134L576 159.774L569.876 159.774C569.395 159.774 569.011 159.913 568.726 160.19C568.44 160.463 568.298 160.823 568.298 161.27C568.298 161.573 568.374 161.845 568.528 162.088C568.677 162.327 568.888 162.517 569.161 162.657C569.429 162.798 569.744 162.868 570.107 162.868L576 162.868L576 165.591Z" fill="black"/>
<path d="M171.733 46.9091L174.373 51.3707H174.475L177.128 46.9091H180.254L176.259 53.4545L180.343 60H177.16L174.475 55.532H174.373L171.688 60H168.518L172.615 53.4545L168.594 46.9091H171.733ZM181.954 60V50.1818H184.549V51.9141H184.664C184.869 51.3388 185.21 50.8849 185.687 50.5526C186.164 50.2202 186.735 50.054 187.4 50.054C188.073 50.054 188.646 50.2223 189.119 50.5589C189.592 50.8913 189.908 51.343 190.065 51.9141H190.168C190.368 51.3516 190.73 50.902 191.254 50.5653C191.783 50.2244 192.407 50.054 193.127 50.054C194.043 50.054 194.787 50.3459 195.358 50.9297C195.933 51.5092 196.221 52.3317 196.221 53.397V60H193.504V53.9339C193.504 53.3885 193.359 52.9794 193.07 52.7067C192.78 52.4339 192.418 52.2976 191.983 52.2976C191.489 52.2976 191.103 52.4553 190.826 52.7706C190.549 53.0817 190.411 53.4929 190.411 54.0043V60H187.771V53.8764C187.771 53.3949 187.632 53.0114 187.355 52.7259C187.082 52.4403 186.722 52.2976 186.275 52.2976C185.972 52.2976 185.7 52.3743 185.457 52.5277C185.218 52.6768 185.028 52.8878 184.888 53.1605C184.747 53.429 184.677 53.7443 184.677 54.1065V60H181.954Z" fill="black"/>
<path d="M476.381 90.2764L478.05 88.6186L479.961 88.8645L481.742 89.0059L485.234 89.4107L483.402 91.2307L481.025 90.9787L479.702 90.7439L476.381 90.2764ZM480.005 83.8656C481.011 84.8784 481.675 85.9307 481.997 87.0225C482.322 88.1114 482.341 89.1706 482.054 90.2002C481.767 91.2238 481.215 92.1425 480.395 92.9564C479.57 93.7763 478.643 94.3247 477.615 94.6015C476.586 94.8783 475.529 94.8507 474.442 94.5187C473.355 94.1867 472.31 93.5158 471.307 92.5061C470.301 91.4933 469.636 90.4425 469.311 89.3537C468.986 88.2648 468.967 87.2086 469.253 86.185C469.537 85.1585 470.092 84.2352 470.917 83.4153C471.736 82.6014 472.66 82.056 473.688 81.7792C474.717 81.4963 475.774 81.5209 476.861 81.8529C477.951 82.182 478.999 82.8529 480.005 83.8656ZM478.014 85.8433C477.362 85.1873 476.715 84.7316 476.071 84.4764C475.43 84.2181 474.817 84.1483 474.232 84.2669C473.647 84.3855 473.117 84.6806 472.642 85.1521C472.168 85.6236 471.869 86.1515 471.747 86.7356C471.624 87.3198 471.688 87.9347 471.939 88.5804C472.193 89.223 472.646 89.8724 473.298 90.5284C473.95 91.1844 474.596 91.6416 475.237 91.8998C475.881 92.155 476.495 92.2234 477.08 92.1048C477.665 91.9862 478.195 91.6911 478.67 91.2196C479.144 90.7481 479.443 90.2202 479.565 89.6361C479.688 89.0519 479.622 88.4385 479.368 87.7958C479.117 87.1501 478.666 86.4993 478.014 85.8433ZM489.365 83.7936L486.072 87.0642L476.846 77.7771L480.166 74.4795C481.1 73.5515 482.089 72.9385 483.132 72.6406C484.173 72.3397 485.218 72.3552 486.269 72.6871C487.323 73.016 488.328 73.6627 489.286 74.627C490.247 75.5945 490.89 76.6075 491.215 77.6662C491.543 78.722 491.552 79.7736 491.241 80.8212C490.933 81.8658 490.308 82.8566 489.365 83.7936ZM486.365 83.4312L487.612 82.1923C488.192 81.6157 488.578 81.0279 488.77 80.4289C488.962 79.8238 488.941 79.2045 488.708 78.571C488.475 77.9314 488.015 77.2655 487.327 76.5732C486.646 75.8869 485.987 75.4267 485.352 75.1926C484.72 74.9555 484.104 74.9309 483.504 75.1187C482.904 75.3066 482.313 75.6888 481.733 76.2655L480.481 77.5088L486.365 83.4312Z" fill="black"/>
</svg>
